{"title":"Back To 1942 2012 BRRip 720p x264 AAC - PRiSTiNE [P2PDL]","uid":8214896,"size":886651316,"categoryP":"video","categoryS":"hd___movies","magnet":"?xt=urn:btih:ac053660d2e24573e610f0d732734223c744a0de&amp;dn=Back+To+1942+2012+BRRip+720p+x264+AAC+-+PRiSTiNE+%5BP2PDL%5D&amp;tr=udp%3A%2F%2Ftracker.openbittorrent.com%3A80&amp;tr=udp%3A%2F%2Fopen.demonii.com%3A1337&amp;tr=udp%3A%2F%2Ftracker.coppersurfer.tk%3A6969&amp;tr=udp%3A%2F%2Fexodus.desync.com%3A6969","seeders":1,"leechers":0,"uploader":"Vitamin_X","files":-1,"time":1362322843,"description":"_________________________  Visit us at _________________________\n  &lt;a href=&quot;\nhttp://p2pdl.com&quot; rel=&quot;nofollow&quot; target=&quot;_NEW&quot;&gt;\nhttp://p2pdl.com&lt;/a&gt;  ____________________________ &lt;a href=&quot; http://p2pdl.com&quot; rel=&quot;nofollow&quot; target=&quot;_NEW&quot;&gt; http://p2pdl.com&lt;/a&gt;\n\nBack To 1942 2012 BRRip 720p x264 AAC - PRiSTiNE\n\nGenre: Drama\nPlot: A deadly drought in 1942 takes its toll on central China's Henan province during the war against Japan.\nDirector: Xiaogang Feng\nStars: Adrien Brody, Tim Robbins, Daoming Chen\nRated: N/A\n\nInfo: &lt;a href=&quot;\nhttp://www.imdb.com/title/tt2113822/&quot; rel=&quot;nofollow&quot; target=&quot;_NEW&quot;&gt;\nhttp://www.imdb.com/title/tt2113822/&lt;/a&gt;\n\nGeneral\nComplete name                  : Back To 1942 2012 BRRip 720p x264 AAC - PRiSTiNE.mp4\nFormat                         : MPEG-4\nFormat profile                 : Base Media\nCodec ID                       : isom\nFile size                      : 835 MiB\nDuration                       : 2h 26mn\nOverall bit rate mode          : Variable\nOverall bit rate               : 797 Kbps\n\nSource                         : 720p BluRay CHD (Thanks)\n\nVideo\nID                             : 1\nFormat                         : AVC\nFormat/Info                    : Advanced Video Codec\nFormat profile                 : High &lt;a class=&quot;__cf_email__&quot; href=&quot;/cdn-cgi/l/email-protection&quot; data-cfemail=&quot;073637474b332936&quot;&gt;[email&amp;#160;protected]&lt;/a&gt;&lt;script cf-hash='f9e31' type=&quot;text/javascript&quot;&gt;\n/* &lt;![CDATA[ */!function(){try{var t=&quot;currentScript&quot;in document?document.currentScript:function(){for(var t=document.getElementsByTagName(&quot;script&quot;),e=t.length;e--;)if(t[e].getAttribute(&quot;cf-hash&quot;))return t[e]}();if(t&amp;&amp;t.previousSibling){var e,r,n,i,c=t.previousSibling,a=c.getAttribute(&quot;data-cfemail&quot;);if(a){for(e=&quot;&quot;,r=parseInt(a.substr(0,2),16),n=2;a.length-n;n+=2)i=parseInt(a.substr(n,2),16)^r,e+=String.fromCharCode(i);e=document.createTextNode(e),c.parentNode.replaceChild(e,c)}}}catch(u){}}();/* ]]&gt; */&lt;/script&gt;\nBit rate                       : 698 Kbps\nMaximum bit rate               : 6 180 Kbps\nWidth                          : 1 280 pixels\nHeight                         : 536 pixels\nDisplay aspect ratio           : 2.40:1\nFrame rate mode                : Constant\nFrame rate                     : 24.000 fps\nColor space                    : YUV\nChroma subsampling             : 4:2:0\nBit depth                      : 10 bits\nScan type                      : Progressive\nBits/(Pixel*Frame)             : 0.042\nStream size                    : 731 MiB (87%)\nWriting library                : x264 core 129 r2245 bc13772\n\n\nAudio\nFormat                         : AAC\nBit rate mode                  : Variable\nBit rate                       : 96.0 Kbps\nChannel(s)                     : 2 channels\nChannel positions              : Front: L R\nSampling rate                  : 48.0 KHz\nStream size                    : 100 MiB (12%)\nLanguage                       : Chinese\n\nSubtitle                       : Yes ( English)\n\n\nScreens: &lt;a href=&quot;\nhttp://ultraimg.com/images/eNzYx.jpg&quot; rel=&quot;nofollow&quot; target=&quot;_NEW&quot;&gt;\nhttp://ultraimg.com/images/eNzYx.jpg&lt;/a&gt; &lt;a href=&quot;\nhttp://ultraimg.com/images/Kk8iA.jpg&quot; rel=&quot;nofollow&quot; target=&quot;_NEW&quot;&gt;\nhttp://ultraimg.com/images/Kk8iA.jpg&lt;/a&gt; &lt;a href=&quot;\nhttp://ultraimg.com/images/os9W.jpg&quot; rel=&quot;nofollow&quot; target=&quot;_NEW&quot;&gt;\nhttp://ultraimg.com/images/os9W.jpg&lt;/a&gt; &lt;a href=&quot;\nhttp://ultraimg.com/images/nFP5d.jpg&quot; rel=&quot;nofollow&quot; target=&quot;_NEW&quot;&gt;\nhttp://ultraimg.com/images/nFP5d.jpg&lt;/a&gt;\n\nThumbs: &lt;a href=&quot;\nhttp://ultraimg.com/images/uG216.jpg&quot; rel=&quot;nofollow&quot; target=&quot;_NEW&quot;&gt;\nhttp://ultraimg.com/images/uG216.jpg&lt;/a&gt;\n----------------------------------------------------------------------------------------------------\nEncoded using revolutionary 10bit encoding, which enables us to provide you more crispier \nand sharper images at small sizes, just make sure you follow our instructions without a fault.\nRecommend to you to use latest version of VLC player. Install K-Lite Codec Pack or shark007 codecs\nin case of any kind of problem in playback (For non-VLC Media Player users). Alternatively, install\nCore AVC codecs, the fastest decoder that there is coupled with Community Center Codec Pack and play\non Windows Media Player Classic. Check sample to be sure.\nEnjoy!","torrent":{"xt":"urn:btih:ac053660d2e24573e610f0d732734223c744a0de","amp;dn":"Back+To+1942+2012+BRRip+720p+x264+AAC+-+PRiSTiNE+%5BP2PDL%5D","amp;tr":["udp%3A%2F%2Ftracker.openbittorrent.com%3A80","udp%3A%2F%2Fopen.demonii.com%3A1337","udp%3A%2F%2Ftracker.coppersurfer.tk%3A6969","udp%3A%2F%2Fexodus.desync.com%3A6969"],"infoHash":"ac053660d2e24573e610f0d732734223c744a0de","infoHashBuffer":{"type":"Buffer","data":[172,5,54,96,210,226,69,115,230,16,240,215,50,115,66,35,199,68,160,222]},"announce":[],"urlList":[]}}